<svg class="svg-icon" style="width: 1em; height: 1em;vertical-align: middle;fill: currentColor;overflow: hidden;" viewBox="0 0 1024 1024" version="1.1" xmlns="http://www.w3.org/2000/svg"><path d="M855.552 270.0288H175.4624c-3.9936 0-7.0656 3.0208-7.0656 6.4512v436.3776h139.1616c15.0528 0 27.2896 12.2368 27.2896 27.3408v120.576l122.6752-127.5904 11.4176-11.9296c5.1712-5.3248 12.288-8.3968 19.712-8.3968h359.936c3.9936 0 7.0656-2.9696 7.0656-6.4V270.0288zM280.2176 767.488H141.056a27.2896 27.2896 0 0 1-27.2896-27.2896V276.48c0-33.792 27.6992-61.0304 61.6448-61.0304h707.4816c15.104 0 27.3408 12.1856 27.3408 27.2896v463.7184a61.44 61.44 0 0 1-61.696 61.0304H500.2752l-3.3792 3.5328-169.728 176.4352a27.2896 27.2896 0 0 1-47.0016-18.944V767.488z" fill="#111111" /><path d="M560.9984 327.68l-8.1408 218.4704H498.432L490.8032 327.68h70.144z m-35.328 268.544c11.4688 0 21.6064 3.7888 29.4912 11.6736 7.68 7.68 11.6736 17.4592 11.6736 28.6208a40.0896 40.0896 0 0 1-12.0832 29.4912A42.3936 42.3936 0 0 1 496.5888 665.6a39.424 39.424 0 0 1-11.6736-29.0816 37.376 37.376 0 0 1 11.6736-28.6208 39.424 39.424 0 0 1 29.0816-11.6736z" fill="#111111" /></svg>