<svg class="svg-icon" style="width: 1em; height: 1em;vertical-align: middle;fill: currentColor;overflow: hidden;" viewBox="0 0 1024 1024" version="1.1" xmlns="http://www.w3.org/2000/svg"><path d="M512 993.882353C245.850353 993.882353 30.117647 778.149647 30.117647 512S245.850353 30.117647 512 30.117647s481.882353 215.732706 481.882353 481.882353-215.732706 481.882353-481.882353 481.882353z m0-60.235294c232.869647 0 421.647059-188.777412 421.647059-421.647059S744.869647 90.352941 512 90.352941 90.352941 279.130353 90.352941 512s188.777412 421.647059 421.647059 421.647059z" fill="#000000" /><path d="M510.132706 778.511059a43.760941 43.760941 0 1 1 0-87.521883 43.760941 43.760941 0 0 1 0 87.521883zM391.830588 433.814588a30.659765 30.659765 0 0 1-30.208-34.42447c1.987765-17.016471 5.150118-30.930824 9.487059-41.743059a124.325647 124.325647 0 0 1 33.400471-46.592 148.961882 148.961882 0 0 1 51.109647-30.238118A180.615529 180.615529 0 0 1 515.132235 271.058824c42.164706 0 77.251765 12.408471 105.321412 37.255529 28.069647 24.756706 42.134588 57.825882 42.134588 99.087059 0 18.552471-3.614118 35.358118-10.842353 50.416941-7.168 15.088941-22.467765 33.882353-45.869176 56.350118-23.461647 22.497882-38.942118 38.490353-46.622118 48.007529a98.243765 98.243765 0 0 0-17.347764 34.063059c-2.108235 6.957176-3.614118 15.179294-4.427295 24.636235-1.445647 15.962353-14.275765 28.611765-30.298353 28.611765a30.659765 30.659765 0 0 1-30.32847-33.641412c1.054118-10.962824 2.650353-20.510118 4.879059-28.641882 4.126118-15.510588 10.390588-29.063529 18.763294-40.658824 8.342588-11.625412 23.401412-28.672 45.17647-51.169882 21.805176-22.467765 35.84-38.851765 42.164706-49.001412 6.204235-10.209882 12.739765-26.804706 12.739765-46.983529s-10.631529-36.592941-24.937412-52.133647c-14.396235-15.540706-35.267765-23.341176-62.644706-23.341177-53.428706 0-83.727059 27.497412-90.834823 82.492235-2.017882 15.480471-14.607059 27.407059-30.208 27.407059h-0.120471z" fill="#000000" /></svg>