<svg class="svg-icon" style="width: 1.0009765625em; height: 1em;vertical-align: middle;fill: currentColor;overflow: hidden;" viewBox="0 0 1025 1024" version="1.1" xmlns="http://www.w3.org/2000/svg"><path d="M805.481009 134.961554c-8.557078-2.16671-15.000072-2.16671-23.563164-2.16671L190.672025 132.794843l591.245819 0C790.48244 132.794843 799.06508 132.794843 805.481009 134.961554M833.323464 143.520135c-2.109573 0-2.109573-2.139645-4.273276-2.139645C831.213891 141.38049 833.323464 143.520135 833.323464 143.520135M882.618007 184.226024c-2.165207-2.139645-4.304852-6.418936-6.44149-8.557078C878.313154 179.948237 880.4528 182.087882 882.618007 184.226024M925.466548 833.326471l-10.728299 0-19.283874 0L895.454375 231.352353c0-8.558582 0-15.003079-2.136638-23.563164 2.136638 6.444498 2.136638 15.004583 2.136638 23.563164l0 601.974118 19.283874 0L925.466548 833.326471zM944.748918 826.933096c-2.163703 2.114084-6.444498 2.114084-8.557078 4.279291C938.304421 829.048684 942.585215 829.048684 944.748918 826.933096M993.989331 25.70281C972.58987 8.558582 944.748918 0 916.90947 0L246.359943 0c-30.009166 0-57.853124 8.558582-77.135494 25.70281-21.399461 19.283874-34.262895 44.988187-34.262895 70.690997l0 34.261391L113.541042 130.655198c-30.010669 0-57.853124 8.585647-77.136998 25.728371C12.84088 177.808591 0 203.511401 0 231.352353l0 696.252337c0 27.840952 12.84088 53.53925 34.262895 70.713551 21.426526 17.121674 49.267478 25.678752 77.109933 25.678752l668.435444 0c29.952028 0 57.824556-8.557078 77.084371-25.678752 21.420512-19.28237 36.426598-45.012245 36.426598-70.713551l0-34.28996 19.310939 0c29.956539 0 57.797491-8.557078 77.082868-25.699803 21.447577-19.288384 34.28996-44.991194 34.28996-70.690997L1024.003007 98.533452C1028.279291 70.690997 1015.436908 44.986683 993.989331 25.70281M837.632827 925.462037c0 21.426526-25.704313 38.567747-55.714983 38.567747L113.541042 964.029785c-30.010669 0-55.716486-17.141221-55.716486-38.567747L57.824556 231.352353c0-21.423519 25.705817-38.567747 55.716486-38.567747l19.283874 0 57.848613 0 591.245819 0c30.010669 0 55.714983 17.144228 55.714983 38.567747L837.634331 925.462037zM970.42767 792.64464c0 8.557078-4.279291 17.115659-10.671162 23.561661l-2.169718 2.141149c-2.138142 2.144156-4.279291 4.279291-6.415929 4.279291 0 0-2.142653 0-2.142653 2.138142 0 2.169718-2.138142 0-2.138142 2.169718 0 0-2.141149 0-2.141149 2.114084l-2.163703 0c-2.114084 2.163703-6.393375 2.163703-8.560085 4.279291l-2.139645 0-2.141149 0c-2.138142 0-4.277787 0-6.417433 2.163703l-10.698227 0-19.310939 0L893.317737 231.352353c0-8.558582 0-15.003079-2.142653-23.563164 0-2.139645 0-2.139645-2.138142-4.279291 0-2.139645 0-2.139645-2.141149-4.279291 0-2.142653 0-2.142653-2.163703-4.280794 0-2.16671-2.114084-2.16671-2.114084-4.279291-2.165207-2.16671-2.165207-4.304852-4.304852-6.446001-2.136638-2.139645-4.280794-6.418936-6.421943-8.557078-2.136638-4.280794-6.442994-6.446001-8.557078-10.726796-2.163703-2.139645-4.277787-4.279291-8.585647-6.418936l-4.277787-4.280794-2.142653-2.139645c-2.138142 0-2.138142-2.139645-4.277787-2.139645-4.280794-2.165207-10.728299-6.444498-15.001576-8.584143-2.142653 0-2.142653-2.139645-4.285305-2.139645-2.138142 0-4.279291-2.139645-6.44149-2.139645l-2.115588 0c-4.279291 0-6.447505-2.139645-10.726796-2.139645l-2.136638 0-4.280794 0c-8.582639-2.16671-14.977518-2.16671-23.563164-2.16671L190.672025 132.791836 190.672025 98.533452c0-4.279291 0-8.558582 2.114084-12.839376 2.163703-4.304852 4.279291-6.418936 8.557078-10.723788 10.726796-10.699731 25.732882-17.145732 45.015252-17.145732l668.378306 0c30.010669 0 55.687917 17.145732 55.687917 38.569251L970.424663 792.64464zM149.940575 252.777375l430.63709 0 0 57.851621L149.940575 310.628996 149.940575 252.777375zM674.830322 282.785037c0-17.142725 12.836369-30.007662 29.983604-32.147307 17.141221 0 29.979093 12.866441 32.121746 29.983604l0 2.163703c0 17.12017-12.870952 29.983604-29.985108 32.12325-17.141221 0-29.982101-12.839376-32.120242-29.980597L674.830322 282.785037zM57.824556 362.033112l779.808271 0 0 57.853124L57.824556 419.886236 57.824556 362.033112z"  /><path d="M458.479545 474.831367c-117.975205 0-213.59916 95.654027-213.59916 213.600664s95.623955 213.573599 213.59916 213.573599c117.949644 0 213.600664-95.626962 213.600664-213.573599S576.429188 474.831367 458.479545 474.831367zM458.479545 873.131694c-102.018833 0-184.729735-82.677822-184.729735-184.699663 0-102.018833 82.710902-184.728232 184.729735-184.728232 102.018833 0 184.70267 82.710902 184.70267 184.728232C643.183719 790.453872 560.499882 873.131694 458.479545 873.131694z"  /><path d="M520.505203 686.290882c0-27.180864 6.103177-52.910739 16.273635-76.316024 1.873505-4.304852-2.431347-0.924724-2.431347-0.924724-23.429343 10.620039-49.450919 16.538271-76.869354 16.538271-27.185375 0-52.885177-6.157307-76.317527-16.299196-4.677749-2.007327-0.924724 2.429843-0.924724 2.429843 10.618535 23.43235 16.539775 49.477984 16.539775 76.872362 0 27.206426-5.812979 53.043057-16.276642 76.340081 0 0-2.189265 2.933555 2.43285 0.899162 23.563164-10.275711 49.450919-16.536767 76.845296-16.536767 27.206426 0 53.04005 5.83854 76.340081 16.299196 0 0 3.832717 1.741187 0.924724-2.431347C522.274959 742.082549 520.505203 713.686763 520.505203 686.290882z"  /></svg>