<svg class="svg-icon" style="width: 1em;height: 1em;vertical-align: middle;fill: currentColor;overflow: hidden;" viewBox="0 0 1024 1024" version="1.1" xmlns="http://www.w3.org/2000/svg"><path d="M66.1 189.2v526.7c0 35.1 28.5 64.1 64.1 64.1h764.6c35.1 0 64.1-29 64.1-64.1V189.2c0-35.1-28.5-64.1-64.1-64.1H129.7c-34.5-0.1-63.6 29-63.6 64.1z m-64.1 0C2 118.5 59 61.5 129.7 61.5h764.6c70.7 0 127.7 57 127.7 127.7v526.7c0 70.7-57 127.7-127.7 127.7H129.7C59 843.6 2 786.6 2 715.9V189.2z m127.7 773.3h782.1c17.5 0 31.8-14.3 31.8-31.8S929.4 899 911.8 899H129.7c-17.5 0-31.8 14.3-31.8 31.8-0.5 17.5 13.7 31.7 31.8 31.7z m339.8-408.3l132.1-80.6c30.7-18.6 30.7-48.2 0-66.9l-132.1-80.6c-30.7-18.6-54.3-4.4-54.3 30.7V524c-0.5 35.1 24.2 48.3 54.3 30.2z m33.5 54.3c-72.3 44.4-151.8 0.5-151.8-85V356.3c0-85 78.9-129.3 151.8-85L634.5 352c70.7 43.3 70.7 132.6 0 175.9-0.5 0-131.5 80.6-131.5 80.6z"  /></svg>