<?xml version="1.0" standalone="no"?>
<!DOCTYPE svg PUBLIC "-//W3C//DTD SVG 20010904//EN"
 "http://www.w3.org/TR/2001/REC-SVG-20010904/DTD/svg10.dtd">
<svg version="1.0" xmlns="http://www.w3.org/2000/svg"
 width="1280.000000pt" height="1237.000000pt" viewBox="0 0 1280.000000 1237.000000"
 preserveAspectRatio="xMidYMid meet">
<metadata>
Created by potrace 1.15, written by Peter Selinger 2001-2017
</metadata>
<g transform="translate(0.000000,1237.000000) scale(0.100000,-0.100000)"
fill="#000000" stroke="none">
<path d="M11170 12345 c-358 -131 -1345 -473 -1617 -560 -851 -273 -1608 -434
-2168 -461 -121 -6 -137 -5 -227 20 -263 72 -432 158 -863 440 -491 321 -683
417 -945 473 -115 24 -355 25 -460 1 -41 -10 -199 -40 -350 -68 -918 -171
-1644 -348 -3476 -846 -292 -79 -535 -144 -541 -144 -6 0 -35 51 -66 113 -141
283 -314 352 -408 162 -83 -170 -58 -430 72 -737 27 -65 117 -301 198 -525 82
-225 208 -568 279 -763 72 -195 183 -499 247 -675 136 -374 152 -416 575
-1565 178 -481 358 -969 400 -1085 78 -211 269 -730 640 -1735 111 -300 250
-678 310 -840 60 -162 154 -416 208 -565 55 -148 150 -407 212 -575 62 -168
143 -388 180 -490 37 -102 118 -321 179 -487 61 -167 161 -439 222 -605 121
-330 244 -664 254 -689 9 -23 143 -97 216 -120 78 -24 116 -24 157 1 51 31 72
87 72 197 0 213 -89 527 -329 1159 -97 256 -710 1932 -996 2724 -57 157 -166
458 -243 670 -319 880 -484 1352 -476 1360 19 18 1013 379 1399 508 1011 338
1798 511 2565 562 133 9 150 8 213 -11 170 -50 363 -148 752 -381 594 -355
808 -438 1133 -439 141 0 225 12 352 50 52 16 183 43 290 61 626 101 1198 250
2285 595 220 70 492 156 605 192 210 66 767 233 777 233 10 0 -6 272 -22 367
-40 242 -112 465 -328 1013 -170 432 -232 605 -279 780 -28 107 -95 305 -467
1383 -27 78 -141 409 -253 734 -112 326 -205 593 -208 592 -3 0 -34 -11 -70
-24z"/>
</g>
</svg>
